<svg width="100%" height="100%" id="svg" viewBox="0 0 1440 690" xmlns="http://www.w3.org/2000/svg" class="transition duration-300 ease-in-out delay-150"><defs><linearGradient id="gradient" x1="0%" y1="50%" x2="100%" y2="50%"><stop offset="5%" stop-color="#F78DA7"></stop><stop offset="95%" stop-color="#8ED1FC"></stop></linearGradient></defs><path d="M 0,700 L 0,175 C 199.33333333333331,210.86666666666665 398.66666666666663,246.7333333333333 568,262 C 737.3333333333334,277.2666666666667 876.6666666666667,271.93333333333334 1017,279 C 1157.3333333333333,286.06666666666666 1298.6666666666665,305.5333333333333 1440,325 L 1440,700 L 0,700 Z" stroke="none" stroke-width="0" fill="url(#gradient)" fill-opacity="0.53" class="transition-all duration-300 ease-in-out delay-150 path-0"></path><defs><linearGradient id="gradient" x1="0%" y1="50%" x2="100%" y2="50%"><stop offset="5%" stop-color="#F78DA7"></stop><stop offset="95%" stop-color="#8ED1FC"></stop></linearGradient></defs><path d="M 0,700 L 0,408 C 126.26666666666671,435.73333333333335 252.53333333333342,463.46666666666664 435,475 C 617.4666666666666,486.53333333333336 856.1333333333332,481.8666666666667 1033,493 C 1209.8666666666668,504.1333333333333 1324.9333333333334,531.0666666666666 1440,558 L 1440,700 L 0,700 Z" stroke="none" stroke-width="0" fill="url(#gradient)" fill-opacity="1" class="transition-all duration-300 ease-in-out delay-150 path-1"></path></svg>